[img]http://img341.imageshack.us/img341/9676/cloudatlas.jpg[/img]

[b][size=200][color=black]PLOT[/color][/size][/b]

[code]An exploration of how the actions of individual lives impact
one another in the past, present and future, as one soul is shaped 
from a killer into a hero, and an act of kindness ripples across 
centuries to inspire a revolution.[/code]

[b][size=200][color=black]IMDB[/color][/size][/b]

[code]http://www.imdb.com/title/tt1371111/[/code]

[b][size=200][color=black]MOVIE INFO[/color][/size][/b]

[code]Cloud Atlas [2012] RC BDRip x264 AAC-V3nom

Format                                   : MPEG-4
Format profile                           : Base Media / Version 2
Codec ID                                 : mp42
File size                                : 350 MiB
Duration                                 : 2h 52mn
Overall bit rate mode                    : Variable
Overall bit rate                         : 284 Kbps
Encoded date                             : UTC 2012-12-22 14:05:23
Tagged date                              : UTC 2012-12-22 14:49:44

Video
ID                                       : 1
Format                                   : AVC
Format/Info                              : Advanced Video Codec
Format profile                           : Main@L2.1
Format settings, CABAC                   : Yes
Format settings, ReFrames                : 4 frames
Codec ID                                 : avc1
Codec ID/Info                            : Advanced Video Coding
Duration                                 : 2h 52mn
Bit rate mode                            : Variable
Bit rate                                 : 152 Kbps
Width                                    : 656 pixels
Height                                   : 272 pixels
Display aspect ratio                     : 2.40:1
Frame rate mode                          : Variable
Frame rate                               : 23.976 fps
Minimum frame rate                       : 23.974 fps
Maximum frame rate                       : 90 000.000 fps
Color space                              : YUV
Chroma subsampling                       : 4:2:0
Bit depth                                : 8 bits
Scan type                                : Progressive
Bits/(Pixel*Frame)                       : 0.036
Stream size                              : 186 MiB (53%)
Writing library                          : x264 core 112

Audio
ID                                       : 2
Format                                   : AAC
Format/Info                              : Advanced Audio Codec
Format profile                           : LC
Codec ID                                 : 40
Duration                                 : 2h 52mn
Bit rate mode                            : Variable
Bit rate                                 : 128 Kbps
Maximum bit rate                         : 248 Kbps
Channel(s)                               : 2 channels
Channel positions                        : Front: L R
Sampling rate                            : 48.0 KHz
Compression mode                         : Lossy
Delay relative to video                  : 83ms
Stream size                              : 158 MiB (45%)
Encoded date                             : UTC 2012-12-22 14:05:23
Tagged date                              : UTC 2012-12-22 14:49:36[/code]

[b][size=200][color=black]SOURCE[/color][/size][/b]

[code]Cloud.Atlas.2012.RC.BDRip.STUDIO.AUDIO.XviD-S4A(Thanks)[/code]

[b][size=200][color=black]SCREENSHOTS[/color][/size][/b]

[img]http://img838.imageshack.us/img838/6441/cloudatlas2012rcbdripx2.jpg[/img]

[img]http://kastatic.com/i2/users/133df62bbf28e62494bb17fe11078f1a.gif[/img][img]http://kastatic.com/i2/users/133df62bbf28e62494bb17fe11078f1a.gif[/img]